<mxfile host="65bd71144e" pages="3">
    <diagram id="0DdXMKZVmKesbbH0UBOb" name="Page-3">
        <mxGraphModel dx="555" dy="265" grid="1" gridSize="10" guides="1" tooltips="1" connect="1" arrows="1" fold="1" page="1" pageScale="1" pageWidth="850" pageHeight="1100" math="0" shadow="0">
            <root>
                <mxCell id="hfY1J5NChJV3hu24dKLG-0"/>
                <mxCell id="hfY1J5NChJV3hu24dKLG-1" parent="hfY1J5NChJV3hu24dKLG-0"/>
                <mxCell id="hfY1J5NChJV3hu24dKLG-2" value="Course" style="swimlane;fontStyle=0;childLayout=stackLayout;horizontal=1;startSize=26;fillColor=none;horizontalStack=0;resizeParent=1;resizeParentMax=0;resizeLast=0;collapsible=1;marginBottom=0;" parent="hfY1J5NChJV3hu24dKLG-1" vertex="1">
                    <mxGeometry x="20" y="372" width="140" height="208" as="geometry"/>
                </mxCell>
                <mxCell id="hfY1J5NChJV3hu24dKLG-3" value="title" style="text;strokeColor=none;fillColor=none;align=left;verticalAlign=top;spacingLeft=4;spacingRight=4;overflow=hidden;rotatable=0;points=[[0,0.5],[1,0.5]];portConstraint=eastwest;" parent="hfY1J5NChJV3hu24dKLG-2" vertex="1">
                    <mxGeometry y="26" width="140" height="26" as="geometry"/>
                </mxCell>
                <mxCell id="zpaFZ0uSV2rfIoWHVyEm-0" value="level" style="text;strokeColor=none;fillColor=none;align=left;verticalAlign=top;spacingLeft=4;spacingRight=4;overflow=hidden;rotatable=0;points=[[0,0.5],[1,0.5]];portConstraint=eastwest;" parent="hfY1J5NChJV3hu24dKLG-2" vertex="1">
                    <mxGeometry y="52" width="140" height="26" as="geometry"/>
                </mxCell>
                <mxCell id="LfmjEGiBZWo-PEVBVxV7-0" value="type" style="text;strokeColor=none;fillColor=none;align=left;verticalAlign=top;spacingLeft=4;spacingRight=4;overflow=hidden;rotatable=0;points=[[0,0.5],[1,0.5]];portConstraint=eastwest;" parent="hfY1J5NChJV3hu24dKLG-2" vertex="1">
                    <mxGeometry y="78" width="140" height="26" as="geometry"/>
                </mxCell>
                <mxCell id="hfY1J5NChJV3hu24dKLG-4" value="image" style="text;strokeColor=none;fillColor=none;align=left;verticalAlign=top;spacingLeft=4;spacingRight=4;overflow=hidden;rotatable=0;points=[[0,0.5],[1,0.5]];portConstraint=eastwest;" parent="hfY1J5NChJV3hu24dKLG-2" vertex="1">
                    <mxGeometry y="104" width="140" height="26" as="geometry"/>
                </mxCell>
                <mxCell id="hfY1J5NChJV3hu24dKLG-5" value="overview" style="text;strokeColor=none;fillColor=none;align=left;verticalAlign=top;spacingLeft=4;spacingRight=4;overflow=hidden;rotatable=0;points=[[0,0.5],[1,0.5]];portConstraint=eastwest;" parent="hfY1J5NChJV3hu24dKLG-2" vertex="1">
                    <mxGeometry y="130" width="140" height="26" as="geometry"/>
                </mxCell>
                <mxCell id="hfY1J5NChJV3hu24dKLG-6" value="documents" style="text;strokeColor=none;fillColor=none;align=left;verticalAlign=top;spacingLeft=4;spacingRight=4;overflow=hidden;rotatable=0;points=[[0,0.5],[1,0.5]];portConstraint=eastwest;" parent="hfY1J5NChJV3hu24dKLG-2" vertex="1">
                    <mxGeometry y="156" width="140" height="26" as="geometry"/>
                </mxCell>
                <mxCell id="hfY1J5NChJV3hu24dKLG-8" value="units" style="text;strokeColor=none;fillColor=none;align=left;verticalAlign=top;spacingLeft=4;spacingRight=4;overflow=hidden;rotatable=0;points=[[0,0.5],[1,0.5]];portConstraint=eastwest;" parent="hfY1J5NChJV3hu24dKLG-2" vertex="1">
                    <mxGeometry y="182" width="140" height="26" as="geometry"/>
                </mxCell>
                <mxCell id="zpaFZ0uSV2rfIoWHVyEm-1" value="Level" style="swimlane;fontStyle=0;childLayout=stackLayout;horizontal=1;startSize=26;fillColor=none;horizontalStack=0;resizeParent=1;resizeParentMax=0;resizeLast=0;collapsible=1;marginBottom=0;" parent="hfY1J5NChJV3hu24dKLG-1" vertex="1">
                    <mxGeometry x="240" y="430" width="140" height="52" as="geometry"/>
                </mxCell>
                <mxCell id="zpaFZ0uSV2rfIoWHVyEm-2" value="number" style="text;strokeColor=none;fillColor=none;align=left;verticalAlign=top;spacingLeft=4;spacingRight=4;overflow=hidden;rotatable=0;points=[[0,0.5],[1,0.5]];portConstraint=eastwest;" parent="zpaFZ0uSV2rfIoWHVyEm-1" vertex="1">
                    <mxGeometry y="26" width="140" height="26" as="geometry"/>
                </mxCell>
                <mxCell id="zpaFZ0uSV2rfIoWHVyEm-9" value="" style="endArrow=none;html=1;rounded=0;entryX=0;entryY=0.5;entryDx=0;entryDy=0;exitX=1;exitY=0.5;exitDx=0;exitDy=0;" parent="hfY1J5NChJV3hu24dKLG-1" source="zpaFZ0uSV2rfIoWHVyEm-0" target="zpaFZ0uSV2rfIoWHVyEm-2" edge="1">
                    <mxGeometry relative="1" as="geometry">
                        <mxPoint x="220" y="139" as="sourcePoint"/>
                        <mxPoint x="500" y="290" as="targetPoint"/>
                    </mxGeometry>
                </mxCell>
                <mxCell id="zpaFZ0uSV2rfIoWHVyEm-10" value="M" style="resizable=0;html=1;align=left;verticalAlign=bottom;" parent="zpaFZ0uSV2rfIoWHVyEm-9" connectable="0" vertex="1">
                    <mxGeometry x="-1" relative="1" as="geometry"/>
                </mxCell>
                <mxCell id="zpaFZ0uSV2rfIoWHVyEm-11" value="1" style="resizable=0;html=1;align=right;verticalAlign=bottom;" parent="zpaFZ0uSV2rfIoWHVyEm-9" connectable="0" vertex="1">
                    <mxGeometry x="1" relative="1" as="geometry"/>
                </mxCell>
                <mxCell id="zpaFZ0uSV2rfIoWHVyEm-12" value="SchoolInfo" style="swimlane;fontStyle=0;childLayout=stackLayout;horizontal=1;startSize=26;fillColor=none;horizontalStack=0;resizeParent=1;resizeParentMax=0;resizeLast=0;collapsible=1;marginBottom=0;" parent="hfY1J5NChJV3hu24dKLG-1" vertex="1">
                    <mxGeometry x="420" y="280" width="140" height="208" as="geometry"/>
                </mxCell>
                <mxCell id="zpaFZ0uSV2rfIoWHVyEm-13" value="phone" style="text;strokeColor=none;fillColor=none;align=left;verticalAlign=top;spacingLeft=4;spacingRight=4;overflow=hidden;rotatable=0;points=[[0,0.5],[1,0.5]];portConstraint=eastwest;" parent="zpaFZ0uSV2rfIoWHVyEm-12" vertex="1">
                    <mxGeometry y="26" width="140" height="26" as="geometry"/>
                </mxCell>
                <mxCell id="zpaFZ0uSV2rfIoWHVyEm-14" value="email" style="text;strokeColor=none;fillColor=none;align=left;verticalAlign=top;spacingLeft=4;spacingRight=4;overflow=hidden;rotatable=0;points=[[0,0.5],[1,0.5]];portConstraint=eastwest;" parent="zpaFZ0uSV2rfIoWHVyEm-12" vertex="1">
                    <mxGeometry y="52" width="140" height="26" as="geometry"/>
                </mxCell>
                <mxCell id="zpaFZ0uSV2rfIoWHVyEm-15" value="missions" style="text;strokeColor=none;fillColor=none;align=left;verticalAlign=top;spacingLeft=4;spacingRight=4;overflow=hidden;rotatable=0;points=[[0,0.5],[1,0.5]];portConstraint=eastwest;" parent="zpaFZ0uSV2rfIoWHVyEm-12" vertex="1">
                    <mxGeometry y="78" width="140" height="26" as="geometry"/>
                </mxCell>
                <mxCell id="zpaFZ0uSV2rfIoWHVyEm-16" value="fb_link" style="text;strokeColor=none;fillColor=none;align=left;verticalAlign=top;spacingLeft=4;spacingRight=4;overflow=hidden;rotatable=0;points=[[0,0.5],[1,0.5]];portConstraint=eastwest;" parent="zpaFZ0uSV2rfIoWHVyEm-12" vertex="1">
                    <mxGeometry y="104" width="140" height="26" as="geometry"/>
                </mxCell>
                <mxCell id="zpaFZ0uSV2rfIoWHVyEm-17" value="linkedin" style="text;strokeColor=none;fillColor=none;align=left;verticalAlign=top;spacingLeft=4;spacingRight=4;overflow=hidden;rotatable=0;points=[[0,0.5],[1,0.5]];portConstraint=eastwest;" parent="zpaFZ0uSV2rfIoWHVyEm-12" vertex="1">
                    <mxGeometry y="130" width="140" height="26" as="geometry"/>
                </mxCell>
                <mxCell id="zpaFZ0uSV2rfIoWHVyEm-18" value="youtube" style="text;strokeColor=none;fillColor=none;align=left;verticalAlign=top;spacingLeft=4;spacingRight=4;overflow=hidden;rotatable=0;points=[[0,0.5],[1,0.5]];portConstraint=eastwest;" parent="zpaFZ0uSV2rfIoWHVyEm-12" vertex="1">
                    <mxGeometry y="156" width="140" height="26" as="geometry"/>
                </mxCell>
                <mxCell id="RFsRMXVYnxnAImBVlIMj-22" value="gallery" style="text;strokeColor=none;fillColor=none;align=left;verticalAlign=top;spacingLeft=4;spacingRight=4;overflow=hidden;rotatable=0;points=[[0,0.5],[1,0.5]];portConstraint=eastwest;" parent="zpaFZ0uSV2rfIoWHVyEm-12" vertex="1">
                    <mxGeometry y="182" width="140" height="26" as="geometry"/>
                </mxCell>
                <mxCell id="zpaFZ0uSV2rfIoWHVyEm-24" value="" style="endArrow=none;html=1;rounded=0;entryX=-0.031;entryY=0.115;entryDx=0;entryDy=0;entryPerimeter=0;exitX=1;exitY=0;exitDx=0;exitDy=0;" parent="hfY1J5NChJV3hu24dKLG-1" source="LfmjEGiBZWo-PEVBVxV7-1" target="zpaFZ0uSV2rfIoWHVyEm-13" edge="1">
                    <mxGeometry relative="1" as="geometry">
                        <mxPoint x="320" y="310" as="sourcePoint"/>
                        <mxPoint x="440" y="299" as="targetPoint"/>
                    </mxGeometry>
                </mxCell>
                <mxCell id="zpaFZ0uSV2rfIoWHVyEm-25" value="M" style="resizable=0;html=1;align=left;verticalAlign=bottom;" parent="zpaFZ0uSV2rfIoWHVyEm-24" connectable="0" vertex="1">
                    <mxGeometry x="-1" relative="1" as="geometry"/>
                </mxCell>
                <mxCell id="zpaFZ0uSV2rfIoWHVyEm-26" value="1" style="resizable=0;html=1;align=right;verticalAlign=bottom;" parent="zpaFZ0uSV2rfIoWHVyEm-24" connectable="0" vertex="1">
                    <mxGeometry x="1" relative="1" as="geometry"/>
                </mxCell>
                <mxCell id="RFsRMXVYnxnAImBVlIMj-0" value="Unit" style="swimlane;fontStyle=0;childLayout=stackLayout;horizontal=1;startSize=26;fillColor=none;horizontalStack=0;resizeParent=1;resizeParentMax=0;resizeLast=0;collapsible=1;marginBottom=0;" parent="hfY1J5NChJV3hu24dKLG-1" vertex="1">
                    <mxGeometry x="240" y="550" width="140" height="156" as="geometry"/>
                </mxCell>
                <mxCell id="RFsRMXVYnxnAImBVlIMj-1" value="title" style="text;strokeColor=none;fillColor=none;align=left;verticalAlign=top;spacingLeft=4;spacingRight=4;overflow=hidden;rotatable=0;points=[[0,0.5],[1,0.5]];portConstraint=eastwest;" parent="RFsRMXVYnxnAImBVlIMj-0" vertex="1">
                    <mxGeometry y="26" width="140" height="26" as="geometry"/>
                </mxCell>
                <mxCell id="RFsRMXVYnxnAImBVlIMj-3" value="image" style="text;strokeColor=none;fillColor=none;align=left;verticalAlign=top;spacingLeft=4;spacingRight=4;overflow=hidden;rotatable=0;points=[[0,0.5],[1,0.5]];portConstraint=eastwest;" parent="RFsRMXVYnxnAImBVlIMj-0" vertex="1">
                    <mxGeometry y="52" width="140" height="26" as="geometry"/>
                </mxCell>
                <mxCell id="RFsRMXVYnxnAImBVlIMj-4" value="overview" style="text;strokeColor=none;fillColor=none;align=left;verticalAlign=top;spacingLeft=4;spacingRight=4;overflow=hidden;rotatable=0;points=[[0,0.5],[1,0.5]];portConstraint=eastwest;" parent="RFsRMXVYnxnAImBVlIMj-0" vertex="1">
                    <mxGeometry y="78" width="140" height="26" as="geometry"/>
                </mxCell>
                <mxCell id="RFsRMXVYnxnAImBVlIMj-5" value="documents" style="text;strokeColor=none;fillColor=none;align=left;verticalAlign=top;spacingLeft=4;spacingRight=4;overflow=hidden;rotatable=0;points=[[0,0.5],[1,0.5]];portConstraint=eastwest;" parent="RFsRMXVYnxnAImBVlIMj-0" vertex="1">
                    <mxGeometry y="104" width="140" height="26" as="geometry"/>
                </mxCell>
                <mxCell id="RFsRMXVYnxnAImBVlIMj-6" value="Assessment Information" style="text;strokeColor=none;fillColor=none;align=left;verticalAlign=top;spacingLeft=4;spacingRight=4;overflow=hidden;rotatable=0;points=[[0,0.5],[1,0.5]];portConstraint=eastwest;" parent="RFsRMXVYnxnAImBVlIMj-0" vertex="1">
                    <mxGeometry y="130" width="140" height="26" as="geometry"/>
                </mxCell>
                <mxCell id="RFsRMXVYnxnAImBVlIMj-8" value="" style="endArrow=none;html=1;rounded=0;entryX=1;entryY=0.5;entryDx=0;entryDy=0;exitX=-0.019;exitY=0.12;exitDx=0;exitDy=0;exitPerimeter=0;" parent="hfY1J5NChJV3hu24dKLG-1" source="RFsRMXVYnxnAImBVlIMj-0" target="hfY1J5NChJV3hu24dKLG-8" edge="1">
                    <mxGeometry relative="1" as="geometry">
                        <mxPoint x="330" y="375" as="sourcePoint"/>
                        <mxPoint x="450" y="379" as="targetPoint"/>
                    </mxGeometry>
                </mxCell>
                <mxCell id="RFsRMXVYnxnAImBVlIMj-9" value="M" style="resizable=0;html=1;align=left;verticalAlign=bottom;" parent="RFsRMXVYnxnAImBVlIMj-8" connectable="0" vertex="1">
                    <mxGeometry x="-1" relative="1" as="geometry">
                        <mxPoint x="-10" as="offset"/>
                    </mxGeometry>
                </mxCell>
                <mxCell id="RFsRMXVYnxnAImBVlIMj-10" value="1" style="resizable=0;html=1;align=right;verticalAlign=bottom;" parent="RFsRMXVYnxnAImBVlIMj-8" connectable="0" vertex="1">
                    <mxGeometry x="1" relative="1" as="geometry">
                        <mxPoint x="9" y="-1" as="offset"/>
                    </mxGeometry>
                </mxCell>
                <mxCell id="RFsRMXVYnxnAImBVlIMj-11" value="Campus" style="swimlane;fontStyle=0;childLayout=stackLayout;horizontal=1;startSize=26;fillColor=none;horizontalStack=0;resizeParent=1;resizeParentMax=0;resizeLast=0;collapsible=1;marginBottom=0;" parent="hfY1J5NChJV3hu24dKLG-1" vertex="1">
                    <mxGeometry x="180" y="100" width="140" height="104" as="geometry"/>
                </mxCell>
                <mxCell id="RFsRMXVYnxnAImBVlIMj-12" value="Address" style="text;strokeColor=none;fillColor=none;align=left;verticalAlign=top;spacingLeft=4;spacingRight=4;overflow=hidden;rotatable=0;points=[[0,0.5],[1,0.5]];portConstraint=eastwest;" parent="RFsRMXVYnxnAImBVlIMj-11" vertex="1">
                    <mxGeometry y="26" width="140" height="26" as="geometry"/>
                </mxCell>
                <mxCell id="RFsRMXVYnxnAImBVlIMj-13" value="Email" style="text;strokeColor=none;fillColor=none;align=left;verticalAlign=top;spacingLeft=4;spacingRight=4;overflow=hidden;rotatable=0;points=[[0,0.5],[1,0.5]];portConstraint=eastwest;" parent="RFsRMXVYnxnAImBVlIMj-11" vertex="1">
                    <mxGeometry y="52" width="140" height="26" as="geometry"/>
                </mxCell>
                <mxCell id="RFsRMXVYnxnAImBVlIMj-14" value="Phone No." style="text;strokeColor=none;fillColor=none;align=left;verticalAlign=top;spacingLeft=4;spacingRight=4;overflow=hidden;rotatable=0;points=[[0,0.5],[1,0.5]];portConstraint=eastwest;" parent="RFsRMXVYnxnAImBVlIMj-11" vertex="1">
                    <mxGeometry y="78" width="140" height="26" as="geometry"/>
                </mxCell>
                <mxCell id="RFsRMXVYnxnAImBVlIMj-18" value="Gallery" style="swimlane;fontStyle=0;childLayout=stackLayout;horizontal=1;startSize=26;fillColor=none;horizontalStack=0;resizeParent=1;resizeParentMax=0;resizeLast=0;collapsible=1;marginBottom=0;" parent="hfY1J5NChJV3hu24dKLG-1" vertex="1">
                    <mxGeometry x="640" y="190" width="140" height="52" as="geometry"/>
                </mxCell>
                <mxCell id="RFsRMXVYnxnAImBVlIMj-19" value="images" style="text;strokeColor=none;fillColor=none;align=left;verticalAlign=top;spacingLeft=4;spacingRight=4;overflow=hidden;rotatable=0;points=[[0,0.5],[1,0.5]];portConstraint=eastwest;" parent="RFsRMXVYnxnAImBVlIMj-18" vertex="1">
                    <mxGeometry y="26" width="140" height="26" as="geometry"/>
                </mxCell>
                <mxCell id="LfmjEGiBZWo-PEVBVxV7-1" value="Academic" style="swimlane;fontStyle=0;childLayout=stackLayout;horizontal=1;startSize=26;fillColor=none;horizontalStack=0;resizeParent=1;resizeParentMax=0;resizeLast=0;collapsible=1;marginBottom=0;" parent="hfY1J5NChJV3hu24dKLG-1" vertex="1">
                    <mxGeometry x="240" y="310" width="140" height="104" as="geometry"/>
                </mxCell>
                <mxCell id="LfmjEGiBZWo-PEVBVxV7-2" value="Name" style="text;strokeColor=none;fillColor=none;align=left;verticalAlign=top;spacingLeft=4;spacingRight=4;overflow=hidden;rotatable=0;points=[[0,0.5],[1,0.5]];portConstraint=eastwest;" parent="LfmjEGiBZWo-PEVBVxV7-1" vertex="1">
                    <mxGeometry y="26" width="140" height="26" as="geometry"/>
                </mxCell>
                <mxCell id="LfmjEGiBZWo-PEVBVxV7-3" value="Courses" style="text;strokeColor=none;fillColor=none;align=left;verticalAlign=top;spacingLeft=4;spacingRight=4;overflow=hidden;rotatable=0;points=[[0,0.5],[1,0.5]];portConstraint=eastwest;" parent="LfmjEGiBZWo-PEVBVxV7-1" vertex="1">
                    <mxGeometry y="52" width="140" height="26" as="geometry"/>
                </mxCell>
                <mxCell id="4tQ92bASYjrDjc7M2cKc-0" value="School" style="text;strokeColor=none;fillColor=none;align=left;verticalAlign=top;spacingLeft=4;spacingRight=4;overflow=hidden;rotatable=0;points=[[0,0.5],[1,0.5]];portConstraint=eastwest;" parent="LfmjEGiBZWo-PEVBVxV7-1" vertex="1">
                    <mxGeometry y="78" width="140" height="26" as="geometry"/>
                </mxCell>
                <mxCell id="LfmjEGiBZWo-PEVBVxV7-5" value="" style="endArrow=none;html=1;rounded=0;exitX=1;exitY=0.045;exitDx=0;exitDy=0;exitPerimeter=0;entryX=0;entryY=0.5;entryDx=0;entryDy=0;" parent="hfY1J5NChJV3hu24dKLG-1" source="hfY1J5NChJV3hu24dKLG-2" target="LfmjEGiBZWo-PEVBVxV7-3" edge="1">
                    <mxGeometry relative="1" as="geometry">
                        <mxPoint x="330" y="320" as="sourcePoint"/>
                        <mxPoint x="450" y="309" as="targetPoint"/>
                    </mxGeometry>
                </mxCell>
                <mxCell id="LfmjEGiBZWo-PEVBVxV7-6" value="M" style="resizable=0;html=1;align=left;verticalAlign=bottom;" parent="LfmjEGiBZWo-PEVBVxV7-5" connectable="0" vertex="1">
                    <mxGeometry x="-1" relative="1" as="geometry"/>
                </mxCell>
                <mxCell id="LfmjEGiBZWo-PEVBVxV7-7" value="1" style="resizable=0;html=1;align=right;verticalAlign=bottom;" parent="LfmjEGiBZWo-PEVBVxV7-5" connectable="0" vertex="1">
                    <mxGeometry x="1" relative="1" as="geometry"/>
                </mxCell>
            </root>
        </mxGraphModel>
    </diagram>
</mxfile>